<svg id="visual" viewBox="0 0 960 540" width="960" height="540" xmlns="http://www.w3.org/2000/svg" xmlns:xlink="http://www.w3.org/1999/xlink" version="1.1"><g stroke-width="1" stroke-linejoin="bevel"><path d="M440.7 352L502.3 431L501.3 371Z" fill="#205a7a" stroke="#205a7a"></path><path d="M440.7 352L415.7 449L502.3 431Z" fill="#205a7a" stroke="#205a7a"></path><path d="M440.7 352L326 373L415.7 449Z" fill="#246688" stroke="#246688"></path><path d="M321 540L415.7 540L415.7 449Z" fill="#081a28" stroke="#081a28"></path><path d="M415.7 449L415.7 540L502.3 431Z" fill="#246688" stroke="#246688"></path><path d="M548.3 540L601 453L502.3 431Z" fill="#277297" stroke="#277297"></path><path d="M502.3 431L601 453L501.3 371Z" fill="#0c2435" stroke="#0c2435"></path><path d="M415.7 540L548.3 540L502.3 431Z" fill="#1d4e6b" stroke="#1d4e6b"></path><path d="M570.3 233L389.7 251L440.7 352Z" fill="#0c2435" stroke="#0c2435"></path><path d="M440.7 352L348 276L326 373Z" fill="#1d4e6b" stroke="#1d4e6b"></path><path d="M570.3 233L440.7 352L501.3 371Z" fill="#00101c" stroke="#00101c"></path><path d="M389.7 251L348 276L440.7 352Z" fill="#081a28" stroke="#081a28"></path><path d="M601 453L628 363L501.3 371Z" fill="#15384f" stroke="#15384f"></path><path d="M203.3 469L281 481L326 373Z" fill="#1d4e6b" stroke="#1d4e6b"></path><path d="M326 373L281 481L415.7 449Z" fill="#246688" stroke="#246688"></path><path d="M281 481L321 540L415.7 449Z" fill="#0c2435" stroke="#0c2435"></path><path d="M628 363L570.3 233L501.3 371Z" fill="#00101c" stroke="#00101c"></path><path d="M570.3 233L510.3 164L389.7 251Z" fill="#15384f" stroke="#15384f"></path><path d="M389.7 251L296 200L348 276Z" fill="#0c2435" stroke="#0c2435"></path><path d="M510.3 164L453.7 158L389.7 251Z" fill="#277297" stroke="#277297"></path><path d="M628 363L673 272L570.3 233Z" fill="#0c2435" stroke="#0c2435"></path><path d="M570.3 233L603 196L510.3 164Z" fill="#112e42" stroke="#112e42"></path><path d="M727.7 324L673 272L628 363Z" fill="#081a28" stroke="#081a28"></path><path d="M673 272L603 196L570.3 233Z" fill="#277297" stroke="#277297"></path><path d="M548.3 540L670 540L601 453Z" fill="#00101c" stroke="#00101c"></path><path d="M601 453L725.7 437L628 363Z" fill="#19435d" stroke="#19435d"></path><path d="M355 103L296 200L389.7 251Z" fill="#0c2435" stroke="#0c2435"></path><path d="M348 276L217.3 285L326 373Z" fill="#081a28" stroke="#081a28"></path><path d="M176.3 366L203.3 469L326 373Z" fill="#19435d" stroke="#19435d"></path><path d="M281 481L221.3 540L321 540Z" fill="#15384f" stroke="#15384f"></path><path d="M296 200L217.3 285L348 276Z" fill="#19435d" stroke="#19435d"></path><path d="M670 540L725.7 437L601 453Z" fill="#00101c" stroke="#00101c"></path><path d="M203.3 469L221.3 540L281 481Z" fill="#277297" stroke="#277297"></path><path d="M534.3 76L427.7 128L453.7 158Z" fill="#15384f" stroke="#15384f"></path><path d="M453.7 158L427.7 128L389.7 251Z" fill="#277297" stroke="#277297"></path><path d="M534.3 76L453.7 158L510.3 164Z" fill="#15384f" stroke="#15384f"></path><path d="M755.7 190L602 89L603 196Z" fill="#0c2435" stroke="#0c2435"></path><path d="M725.7 437L727.7 324L628 363Z" fill="#205a7a" stroke="#205a7a"></path><path d="M217.3 285L176.3 366L326 373Z" fill="#0c2435" stroke="#0c2435"></path><path d="M203.3 469L144.7 540L221.3 540Z" fill="#246688" stroke="#246688"></path><path d="M835.3 327L749.7 307L727.7 324Z" fill="#297ea6" stroke="#297ea6"></path><path d="M727.7 324L749.7 307L673 272Z" fill="#277297" stroke="#277297"></path><path d="M427.7 128L355 103L389.7 251Z" fill="#1d4e6b" stroke="#1d4e6b"></path><path d="M296 200L220.3 188L217.3 285Z" fill="#1d4e6b" stroke="#1d4e6b"></path><path d="M355 103L220.3 188L296 200Z" fill="#1d4e6b" stroke="#1d4e6b"></path><path d="M217.3 285L141.7 266L176.3 366Z" fill="#297ea6" stroke="#297ea6"></path><path d="M670 540L755.7 540L725.7 437Z" fill="#081a28" stroke="#081a28"></path><path d="M725.7 437L835.3 327L727.7 324Z" fill="#112e42" stroke="#112e42"></path><path d="M602 89L534.3 76L510.3 164Z" fill="#297ea6" stroke="#297ea6"></path><path d="M427.7 128L460.7 0L355 103Z" fill="#205a7a" stroke="#205a7a"></path><path d="M602 89L510.3 164L603 196Z" fill="#277297" stroke="#277297"></path><path d="M75.7 467L144.7 540L203.3 469Z" fill="#112e42" stroke="#112e42"></path><path d="M755.7 190L603 196L673 272Z" fill="#277297" stroke="#277297"></path><path d="M220.3 188L141.7 266L217.3 285Z" fill="#00101c" stroke="#00101c"></path><path d="M176.3 366L91.7 383L203.3 469Z" fill="#15384f" stroke="#15384f"></path><path d="M850.3 240L755.7 190L749.7 307Z" fill="#15384f" stroke="#15384f"></path><path d="M749.7 307L755.7 190L673 272Z" fill="#277297" stroke="#277297"></path><path d="M141.7 266L91.7 383L176.3 366Z" fill="#277297" stroke="#277297"></path><path d="M882.3 412L835.3 327L725.7 437Z" fill="#112e42" stroke="#112e42"></path><path d="M91.7 383L75.7 467L203.3 469Z" fill="#081a28" stroke="#081a28"></path><path d="M755.7 540L822.3 540L725.7 437Z" fill="#0c2435" stroke="#0c2435"></path><path d="M535.3 0L460.7 0L534.3 76Z" fill="#19435d" stroke="#19435d"></path><path d="M534.3 76L460.7 0L427.7 128Z" fill="#246688" stroke="#246688"></path><path d="M125.7 93L110.7 148L220.3 188Z" fill="#0c2435" stroke="#0c2435"></path><path d="M605 0L534.3 76L602 89Z" fill="#1d4e6b" stroke="#1d4e6b"></path><path d="M605 0L535.3 0L534.3 76Z" fill="#112e42" stroke="#112e42"></path><path d="M835.3 327L850.3 240L749.7 307Z" fill="#112e42" stroke="#112e42"></path><path d="M751.7 0L605 0L602 89Z" fill="#1d4e6b" stroke="#1d4e6b"></path><path d="M960 285L850.3 240L835.3 327Z" fill="#081a28" stroke="#081a28"></path><path d="M822.3 540L882.3 412L725.7 437Z" fill="#205a7a" stroke="#205a7a"></path><path d="M780.7 78L602 89L755.7 190Z" fill="#15384f" stroke="#15384f"></path><path d="M0 371L0 430L91.7 383Z" fill="#1d4e6b" stroke="#1d4e6b"></path><path d="M91.7 383L0 430L75.7 467Z" fill="#0c2435" stroke="#0c2435"></path><path d="M220.3 188L110.7 148L141.7 266Z" fill="#0c2435" stroke="#0c2435"></path><path d="M205.3 50L220.3 188L355 103Z" fill="#00101c" stroke="#00101c"></path><path d="M460.7 0L297 0L355 103Z" fill="#277297" stroke="#277297"></path><path d="M297 0L205.3 50L355 103Z" fill="#297ea6" stroke="#297ea6"></path><path d="M115.7 0L125.7 93L205.3 50Z" fill="#277297" stroke="#277297"></path><path d="M205.3 50L125.7 93L220.3 188Z" fill="#19435d" stroke="#19435d"></path><path d="M859.3 180L780.7 78L755.7 190Z" fill="#112e42" stroke="#112e42"></path><path d="M960 173L859.3 180L850.3 240Z" fill="#0c2435" stroke="#0c2435"></path><path d="M850.3 240L859.3 180L755.7 190Z" fill="#19435d" stroke="#19435d"></path><path d="M0 371L91.7 383L0 258Z" fill="#277297" stroke="#277297"></path><path d="M75.7 467L0 540L144.7 540Z" fill="#205a7a" stroke="#205a7a"></path><path d="M91.7 383L141.7 266L0 258Z" fill="#112e42" stroke="#112e42"></path><path d="M0 258L141.7 266L110.7 148Z" fill="#246688" stroke="#246688"></path><path d="M0 430L0 540L75.7 467Z" fill="#297ea6" stroke="#297ea6"></path><path d="M0 183L0 258L110.7 148Z" fill="#246688" stroke="#246688"></path><path d="M297 0L194.3 0L205.3 50Z" fill="#246688" stroke="#246688"></path><path d="M0 58L0 183L110.7 148Z" fill="#19435d" stroke="#19435d"></path><path d="M859.3 0L751.7 0L780.7 78Z" fill="#297ea6" stroke="#297ea6"></path><path d="M780.7 78L751.7 0L602 89Z" fill="#1d4e6b" stroke="#1d4e6b"></path><path d="M960 489L960 382L882.3 412Z" fill="#19435d" stroke="#19435d"></path><path d="M882.3 412L960 382L835.3 327Z" fill="#297ea6" stroke="#297ea6"></path><path d="M0 58L110.7 148L125.7 93Z" fill="#205a7a" stroke="#205a7a"></path><path d="M822.3 540L960 489L882.3 412Z" fill="#15384f" stroke="#15384f"></path><path d="M960 382L960 285L835.3 327Z" fill="#15384f" stroke="#15384f"></path><path d="M859.3 180L887.3 59L780.7 78Z" fill="#277297" stroke="#277297"></path><path d="M822.3 540L960 540L960 489Z" fill="#15384f" stroke="#15384f"></path><path d="M194.3 0L115.7 0L205.3 50Z" fill="#246688" stroke="#246688"></path><path d="M960 120L887.3 59L859.3 180Z" fill="#0c2435" stroke="#0c2435"></path><path d="M960 285L960 173L850.3 240Z" fill="#297ea6" stroke="#297ea6"></path><path d="M960 0L859.3 0L887.3 59Z" fill="#246688" stroke="#246688"></path><path d="M887.3 59L859.3 0L780.7 78Z" fill="#19435d" stroke="#19435d"></path><path d="M115.7 0L0 58L125.7 93Z" fill="#15384f" stroke="#15384f"></path><path d="M960 173L960 120L859.3 180Z" fill="#246688" stroke="#246688"></path><path d="M115.7 0L0 0L0 58Z" fill="#19435d" stroke="#19435d"></path><path d="M960 120L960 0L887.3 59Z" fill="#15384f" stroke="#15384f"></path></g></svg>