<svg id="visual" viewBox="0 0 960 540" width="960" height="540" xmlns="http://www.w3.org/2000/svg" xmlns:xlink="http://www.w3.org/1999/xlink" version="1.1"><path d="M0 71L13.3 71C26.7 71 53.3 71 80 70.2C106.7 69.3 133.3 67.7 160 64.2C186.7 60.7 213.3 55.3 240 54.3C266.7 53.3 293.3 56.7 320 56.7C346.7 56.7 373.3 53.3 400 54.3C426.7 55.3 453.3 60.7 480 65.2C506.7 69.7 533.3 73.3 560 73.3C586.7 73.3 613.3 69.7 640 68.7C666.7 67.7 693.3 69.3 720 68.3C746.7 67.3 773.3 63.7 800 63.7C826.7 63.7 853.3 67.3 880 69.2C906.7 71 933.3 71 946.7 71L960 71L960 0L946.7 0C933.3 0 906.7 0 880 0C853.3 0 826.7 0 800 0C773.3 0 746.7 0 720 0C693.3 0 666.7 0 640 0C613.3 0 586.7 0 560 0C533.3 0 506.7 0 480 0C453.3 0 426.7 0 400 0C373.3 0 346.7 0 320 0C293.3 0 266.7 0 240 0C213.3 0 186.7 0 160 0C133.3 0 106.7 0 80 0C53.3 0 26.7 0 13.3 0L0 0Z" fill="#00b5c8"></path><path d="M0 109L13.3 109C26.7 109 53.3 109 80 112.7C106.7 116.3 133.3 123.7 160 121C186.7 118.3 213.3 105.7 240 103.8C266.7 102 293.3 111 320 111.8C346.7 112.7 373.3 105.3 400 108C426.7 110.7 453.3 123.3 480 129.7C506.7 136 533.3 136 560 133.3C586.7 130.7 613.3 125.3 640 126.2C666.7 127 693.3 134 720 130.3C746.7 126.7 773.3 112.3 800 107C826.7 101.7 853.3 105.3 880 110.8C906.7 116.3 933.3 123.7 946.7 127.3L960 131L960 69L946.7 69C933.3 69 906.7 69 880 67.2C853.3 65.3 826.7 61.7 800 61.7C773.3 61.7 746.7 65.3 720 66.3C693.3 67.3 666.7 65.7 640 66.7C613.3 67.7 586.7 71.3 560 71.3C533.3 71.3 506.7 67.7 480 63.2C453.3 58.7 426.7 53.3 400 52.3C373.3 51.3 346.7 54.7 320 54.7C293.3 54.7 266.7 51.3 240 52.3C213.3 53.3 186.7 58.7 160 62.2C133.3 65.7 106.7 67.3 80 68.2C53.3 69 26.7 69 13.3 69L0 69Z" fill="#00b9bd"></path><path d="M0 141L13.3 143.8C26.7 146.7 53.3 152.3 80 156.8C106.7 161.3 133.3 164.7 160 161.8C186.7 159 213.3 150 240 150C266.7 150 293.3 159 320 159C346.7 159 373.3 150 400 151C426.7 152 453.3 163 480 171.2C506.7 179.3 533.3 184.7 560 181C586.7 177.3 613.3 164.7 640 162C666.7 159.3 693.3 166.7 720 163.2C746.7 159.7 773.3 145.3 800 139.8C826.7 134.3 853.3 137.7 880 146.7C906.7 155.7 933.3 170.3 946.7 177.7L960 185L960 129L946.7 125.3C933.3 121.7 906.7 114.3 880 108.8C853.3 103.3 826.7 99.7 800 105C773.3 110.3 746.7 124.7 720 128.3C693.3 132 666.7 125 640 124.2C613.3 123.3 586.7 128.7 560 131.3C533.3 134 506.7 134 480 127.7C453.3 121.3 426.7 108.7 400 106C373.3 103.3 346.7 110.7 320 109.8C293.3 109 266.7 100 240 101.8C213.3 103.7 186.7 116.3 160 119C133.3 121.7 106.7 114.3 80 110.7C53.3 107 26.7 107 13.3 107L0 107Z" fill="#00bdad"></path><path d="M0 303L13.3 297.7C26.7 292.3 53.3 281.7 80 285.3C106.7 289 133.3 307 160 312.3C186.7 317.7 213.3 310.3 240 310.3C266.7 310.3 293.3 317.7 320 317.7C346.7 317.7 373.3 310.3 400 311.2C426.7 312 453.3 321 480 321C506.7 321 533.3 312 560 304C586.7 296 613.3 289 640 290.8C666.7 292.7 693.3 303.3 720 297.8C746.7 292.3 773.3 270.7 800 262.7C826.7 254.7 853.3 260.3 880 274.8C906.7 289.3 933.3 312.7 946.7 324.3L960 336L960 183L946.7 175.7C933.3 168.3 906.7 153.7 880 144.7C853.3 135.7 826.7 132.3 800 137.8C773.3 143.3 746.7 157.7 720 161.2C693.3 164.7 666.7 157.3 640 160C613.3 162.7 586.7 175.3 560 179C533.3 182.7 506.7 177.3 480 169.2C453.3 161 426.7 150 400 149C373.3 148 346.7 157 320 157C293.3 157 266.7 148 240 148C213.3 148 186.7 157 160 159.8C133.3 162.7 106.7 159.3 80 154.8C53.3 150.3 26.7 144.7 13.3 141.8L0 139Z" fill="#00bf99"></path><path d="M0 347L13.3 340.7C26.7 334.3 53.3 321.7 80 322.5C106.7 323.3 133.3 337.7 160 342.2C186.7 346.7 213.3 341.3 240 343.2C266.7 345 293.3 354 320 354.8C346.7 355.7 373.3 348.3 400 347.3C426.7 346.3 453.3 351.7 480 353.5C506.7 355.3 533.3 353.7 560 349.2C586.7 344.7 613.3 337.3 640 337.3C666.7 337.3 693.3 344.7 720 335.7C746.7 326.7 773.3 301.3 800 294.2C826.7 287 853.3 298 880 313.3C906.7 328.7 933.3 348.3 946.7 358.2L960 368L960 334L946.7 322.3C933.3 310.7 906.7 287.3 880 272.8C853.3 258.3 826.7 252.7 800 260.7C773.3 268.7 746.7 290.3 720 295.8C693.3 301.3 666.7 290.7 640 288.8C613.3 287 586.7 294 560 302C533.3 310 506.7 319 480 319C453.3 319 426.7 310 400 309.2C373.3 308.3 346.7 315.7 320 315.7C293.3 315.7 266.7 308.3 240 308.3C213.3 308.3 186.7 315.7 160 310.3C133.3 305 106.7 287 80 283.3C53.3 279.7 26.7 290.3 13.3 295.7L0 301Z" fill="#2ec081"></path><path d="M0 449L13.3 449C26.7 449 53.3 449 80 450C106.7 451 133.3 453 160 458.5C186.7 464 213.3 473 240 473C266.7 473 293.3 464 320 463C346.7 462 373.3 469 400 468C426.7 467 453.3 458 480 459.8C506.7 461.7 533.3 474.3 560 472.5C586.7 470.7 613.3 454.3 640 452.5C666.7 450.7 693.3 463.3 720 462.5C746.7 461.7 773.3 447.3 800 446.5C826.7 445.7 853.3 458.3 880 462C906.7 465.7 933.3 460.3 946.7 457.7L960 455L960 366L946.7 356.2C933.3 346.3 906.7 326.7 880 311.3C853.3 296 826.7 285 800 292.2C773.3 299.3 746.7 324.7 720 333.7C693.3 342.7 666.7 335.3 640 335.3C613.3 335.3 586.7 342.7 560 347.2C533.3 351.7 506.7 353.3 480 351.5C453.3 349.7 426.7 344.3 400 345.3C373.3 346.3 346.7 353.7 320 352.8C293.3 352 266.7 343 240 341.2C213.3 339.3 186.7 344.7 160 340.2C133.3 335.7 106.7 321.3 80 320.5C53.3 319.7 26.7 332.3 13.3 338.7L0 345Z" fill="#4fc065"></path><path d="M0 541L13.3 541C26.7 541 53.3 541 80 541C106.7 541 133.3 541 160 541C186.7 541 213.3 541 240 541C266.7 541 293.3 541 320 541C346.7 541 373.3 541 400 541C426.7 541 453.3 541 480 541C506.7 541 533.3 541 560 541C586.7 541 613.3 541 640 541C666.7 541 693.3 541 720 541C746.7 541 773.3 541 800 541C826.7 541 853.3 541 880 541C906.7 541 933.3 541 946.7 541L960 541L960 453L946.7 455.7C933.3 458.3 906.7 463.7 880 460C853.3 456.3 826.7 443.7 800 444.5C773.3 445.3 746.7 459.7 720 460.5C693.3 461.3 666.7 448.7 640 450.5C613.3 452.3 586.7 468.7 560 470.5C533.3 472.3 506.7 459.7 480 457.8C453.3 456 426.7 465 400 466C373.3 467 346.7 460 320 461C293.3 462 266.7 471 240 471C213.3 471 186.7 462 160 456.5C133.3 451 106.7 449 80 448C53.3 447 26.7 447 13.3 447L0 447Z" fill="#6dbe45"></path></svg>