<svg id="visual" viewBox="0 0 960 540" width="960" height="540" xmlns="http://www.w3.org/2000/svg" xmlns:xlink="http://www.w3.org/1999/xlink" version="1.1"><path d="M0 50L87 87L175 60L262 87L349 77L436 104L524 50L611 66L698 104L785 66L873 87L960 66L960 0L873 0L785 0L698 0L611 0L524 0L436 0L349 0L262 0L175 0L87 0L0 0Z" fill="#00cc8e"></path><path d="M0 206L87 163L175 147L262 303L349 195L436 206L524 233L611 190L698 249L785 222L873 179L960 174L960 64L873 85L785 64L698 102L611 64L524 48L436 102L349 75L262 85L175 58L87 85L0 48Z" fill="#00b98a"></path><path d="M0 293L87 222L175 206L262 390L349 325L436 303L524 303L611 282L698 309L785 325L873 233L960 244L960 172L873 177L785 220L698 247L611 188L524 231L436 204L349 193L262 301L175 145L87 161L0 204Z" fill="#00a784"></path><path d="M0 503L87 455L175 449L262 471L349 503L436 492L524 498L611 498L698 487L785 498L873 492L960 449L960 242L873 231L785 323L698 307L611 280L524 301L436 301L349 323L262 388L175 204L87 220L0 291Z" fill="#00957c"></path><path d="M0 541L87 541L175 541L262 541L349 541L436 541L524 541L611 541L698 541L785 541L873 541L960 541L960 447L873 490L785 496L698 485L611 496L524 496L436 490L349 501L262 469L175 447L87 453L0 501Z" fill="#038373"></path></svg>